<svg xmlns="http://www.w3.org/2000/svg" viewBox="0 0 250 70"><defs/><g id="Layer_4" data-name="Layer 4"><path class="cls-2" d="M9.61 24c0 3.92-1.5 5.39-4.57 5.39a10.63 10.63 0 0 1-1.92-.18v-2.15a13.57 13.57 0 0 0 1.62.1c2 0 2.3-1.47 2.3-3.09v-12.3h2.57zM12 13.64v-2.82h2.44v2.82zm0 2.77h2.44v12.7H12zM16.82 19.68v-3.27h2.35a18.3 18.3 0 0 1 .1 1.87 3.94 3.94 0 0 1 3.66-2.17 3.46 3.46 0 0 1 3.47 2.19 4.33 4.33 0 0 1 4-2.19c2.1 0 4 1.25 4 4.66v8.34H32v-8.06c0-1.4-.52-2.87-2.39-2.87s-2.8 1.45-2.8 3.64v7.29h-2.38v-8c0-1.57-.45-3-2.35-3s-2.84 1.52-2.84 3.89v7h-2.42zM47.42 29.18l-6.29-17.34h2.77l3 8.53c.88 2.52 1.7 5 2.1 6.62.35-1.48 1.27-4 2.17-6.54l3.09-8.61h2.65l-6.47 17.34zM57.53 29.18V10.89H60v18.29zM73.44 22.79c0 3.72-2.12 6.69-6 6.69-3.7 0-5.92-2.82-5.92-6.64s2.2-6.66 6.07-6.66c3.53 0 5.85 2.65 5.85 6.61zm-9.43 0c0 2.72 1.33 4.64 3.5 4.64S71 25.64 71 22.84s-1.3-4.64-3.54-4.64S64 20 64 22.82zM85.32 25.26A5.09 5.09 0 0 1 80 29.48c-3.57 0-5.71-2.57-5.71-6.59 0-3.62 2.07-6.71 5.89-6.71a4.79 4.79 0 0 1 5.16 4.29H82.9a2.62 2.62 0 0 0-2.79-2.27c-2.13 0-3.32 1.82-3.32 4.62S78 27.48 80 27.48a2.84 2.84 0 0 0 2.87-2.22zM89.09 22.39c1-1.24 3.62-4 5.34-5.91h2.89l-4.71 4.92 5.24 7.78H95L90.93 23l-1.84 1.79v4.42h-2.45V10.89h2.45zM72.87 34h6.81c3.77 0 5.47 2 5.47 4.37a3.83 3.83 0 0 1-2.45 3.76 4.28 4.28 0 0 1 3 4.12c0 3.19-2.48 5.09-5.82 5.09h-7zm6.39 7.14c2.37 0 3.29-1 3.29-2.55s-1.07-2.49-3-2.49h-4.16v5zm-3.87 8.11h4.12c2.14 0 3.54-1 3.54-3 0-1.8-1.15-3-3.92-3h-3.74zM97.67 47.64v3.69H95.3a16.48 16.48 0 0 1-.07-1.82 3.76 3.76 0 0 1-3.77 2.12c-2.25 0-4.22-1.17-4.22-4.67v-8.33h2.45v7.81c0 1.62.5 3.09 2.49 3.09 2.2 0 3-1.19 3-4.26v-6.64h2.44zM100.07 35.86V33h2.44v2.82zm0 2.77h2.44v12.7h-2.44zM104.91 51.33V33h2.44v18.33zM120.53 33v18.33h-2.37c-.05-.35-.1-1.25-.1-1.72-.62 1.27-1.87 2-3.92 2-3.27 0-5.29-2.64-5.29-6.51s2.17-6.79 5.72-6.79c2.14 0 3.14.85 3.49 1.55V33zm-5.82 16.54c2.87 0 3.45-2.14 3.45-4.76s-.53-4.44-3.27-4.44c-2.17 0-3.47 1.69-3.47 4.66s1.37 4.58 3.29 4.58zM122.9 35.86V33h2.44v2.82zm0 2.77h2.44v12.7h-2.44zM127.74 41.82v-3.19h2.4c0 .37.1 1.62.1 2a3.9 3.9 0 0 1 3.91-2.3c2.42 0 4.24 1.5 4.24 4.84v8.16h-2.44v-7.86c0-1.82-.7-3.07-2.57-3.07-2.22 0-3.14 1.65-3.14 4.14v6.79h-2.47zM151.41 50.11c0 4.07-1.64 6.44-5.93 6.44-4 0-5.12-2.25-5.34-3.92h2.49a2.74 2.74 0 0 0 3 2c2.77 0 3.42-1.75 3.42-4.59v-1a3.87 3.87 0 0 1-3.89 2.15c-3.17 0-5.27-2.6-5.27-6.27 0-4.09 2.42-6.66 5.52-6.66 2.37 0 3.36 1.12 3.64 1.92 0-.55.07-1.37.1-1.62h2.32v3.67zm-5.69-.92c2.62 0 3.37-1.75 3.37-4.45s-.67-4.36-3.29-4.36c-2.2 0-3.39 1.82-3.39 4.51s1.32 4.3 3.31 4.3zM159.08 34h6.68c3.45 0 5.77 1.92 5.77 5.11 0 3.45-2.5 5.24-5.89 5.24h-4v7h-2.57zm2.57 8.21h3.81c2.25 0 3.45-1.08 3.45-3.05s-1.42-3-3.37-3h-3.89zM172.75 42.11v-3.44h2.39c0 .35.08 1.39.08 2.52a4.38 4.38 0 0 1 4.24-2.82v2.42c-2.6.05-4.24 1.27-4.24 4.54v6h-2.45zM191.36 45c0 3.72-2.12 6.69-6 6.69-3.7 0-5.92-2.82-5.92-6.64s2.2-6.66 6.07-6.66c3.49-.02 5.85 2.61 5.85 6.61zm-9.43 0c0 2.72 1.32 4.64 3.5 4.64s3.44-1.82 3.44-4.62-1.25-4.64-3.49-4.64-3.45 1.78-3.45 4.62zM195.5 38.67v13c0 3.55-.79 4.94-3.69 4.94h-.9v-2a3.62 3.62 0 0 0 .45 0c1.45 0 1.7-.72 1.7-2.42V38.67zm-2.44-2.77v-2.82h2.44v2.82zM199.5 45.48c0 2.4 1.22 4.17 3.29 4.17a2.72 2.72 0 0 0 2.89-1.85h2.47a5.22 5.22 0 0 1-5.43 3.87c-4 0-5.69-3.22-5.69-6.51 0-3.82 1.92-6.79 5.83-6.79 4.15 0 5.52 3.27 5.52 6.06a7 7 0 0 1 0 1zm6.41-1.67c0-2-1-3.55-3.07-3.55s-3.07 1.48-3.27 3.55zM220.23 47.45a5.09 5.09 0 0 1-5.34 4.22c-3.57 0-5.71-2.57-5.71-6.59 0-3.62 2.07-6.71 5.89-6.71a4.79 4.79 0 0 1 5.16 4.29h-2.42a2.62 2.62 0 0 0-2.81-2.27c-2.13 0-3.32 1.82-3.32 4.62s1.17 4.66 3.24 4.66a2.84 2.84 0 0 0 2.87-2.22zM220.25 38.67h2.15V35h2.45v3.7h2.74v1.94h-2.74v7.22c0 1.19.29 1.77 1.42 1.77a3.85 3.85 0 0 0 1-.1v1.82a6.51 6.51 0 0 1-2 .22c-2.09 0-2.94-1.07-2.94-3.22v-7.74h-2.15zM158.59 29.14V29c0-2.47 1.52-4.89 4.94-7.46 2.57-2 3.27-2.59 3.27-4.32a2.48 2.48 0 0 0-2.7-2.77c-1.92 0-2.77 1-3.09 2.92h-2.4a5.14 5.14 0 0 1 5.49-4.94c3.8 0 5.22 2.4 5.22 4.72s-1 3.49-4.07 5.79c-2.22 1.7-3.37 2.92-3.74 4.09H170l-.35 2.12zM182.54 20.81c0 4.16-1.22 8.63-5.86 8.63s-5.84-4.22-5.84-8.51 1.42-8.51 5.91-8.51 5.79 4.12 5.79 8.39zm-9.13.12c0 3.1.52 6.46 3.29 6.46s3.3-3.19 3.3-6.56c0-3.17-.5-6.36-3.17-6.36s-3.42 2.84-3.42 6.46zM186.49 29.14V15.62a10.18 10.18 0 0 1-3.32 1.29V15a9.6 9.6 0 0 0 4-2.32H189v16.46zM191.15 24.48a4.42 4.42 0 0 1 2.92-4.15 3.68 3.68 0 0 1-2.22-3.47c0-2.59 1.85-4.44 5.29-4.44 3.14 0 5.09 1.8 5.09 4.39a3.41 3.41 0 0 1-2.24 3.4 4.33 4.33 0 0 1 2.86 4.19c0 3.19-2.47 5-6 5-3.18.04-5.7-1.83-5.7-4.92zm9.21-.1c0-2-1.27-3-3.34-3-2.3 0-3.35 1.29-3.35 3a3 3 0 0 0 3.33 3.06c2 0 3.36-1.02 3.36-3.06zm-6.11-7.49c0 1.32.87 2.42 2.84 2.42s2.75-.87 2.75-2.37a2.46 2.46 0 0 0-2.77-2.52c-1.98 0-2.82.97-2.82 2.47zM125.71 6.57l18.46 10.66L115.05 25l10.66-18.43M125 3.73l-14.26 24.61 38.82-10.4L125 3.73zM62.16 35.55H33.74V64h28.42V35.55zM35.82 61.88V37.63h24.26v24.25z"/></g></svg>